# File created by Blade
# Date/Time:  Wed Jan 21 17:47:32 2015
# Frame Rate: 120.000 fps
#------------------------------------------------------
:FULLY-SPECIFIED
:DEGREES
415
root 13.965147 31.670760 -20.906291 -178.500109 66.417397 -200.842340
Spine -3.922266 -0.145193 -4.328988
Head 24.210981 -13.693602 -3.780996
LeftShoulder -12.225658 -20.386378 -2.372066
LeftArm -29.739054 -0.501951 -61.284413
LeftForeArm 1.451018 -0.000000 6.430699
LeftHand -0.299061 -0.000000 1.922902
LeftHandThumb1 -26.253704 0.000000 33.147579
RightShoulder -8.502147 -14.538627 7.138287
RightArm 21.710371 -13.203868 60.490237
RightForeArm -29.734138 0.000000 30.237798
RightHand -2.173993 -0.000000 13.605638
RightHandThumb1 -24.326973 -0.000000 -32.862282
LeftUpLeg 5.851337 4.289203 -8.593495
LeftLeg -0.334679 -0.000000 0.000000
LeftFoot -42.996738 21.328838 -19.229647
LeftToeBase 23.495079 -0.000000 -0.000000
RightUpLeg -48.648708 -12.461927 -3.617140
RightLeg -6.431204 -0.000000 0.000000
RightFoot 10.341873 -35.008617 9.293912
RightToeBase 17.154303 -0.000000 -0.000000
416
root 13.944286 31.674335 -20.907975 -178.480634 66.185658 -201.059529
Spine -3.980935 -0.187006 -4.306564
Head 23.897535 -13.815349 -3.748275
LeftShoulder -12.258000 -20.447554 -2.313714
LeftArm -29.954987 -0.199404 -61.231843
LeftForeArm 1.013690 -0.000000 6.699829
LeftHand -0.398299 -0.000000 1.951408
LeftHandThumb1 -26.253704 0.000000 33.147579
RightShoulder -8.395711 -14.398647 7.084509
RightArm 22.138129 -13.543612 59.916454
RightForeArm -29.777223 -0.000000 29.882185
RightHand -2.475957 -0.000000 14.163277
RightHandThumb1 -24.326973 -0.000000 -32.862282
LeftUpLeg 5.575595 4.163185 -8.693942
LeftLeg -0.263324 -0.000000 0.000000
LeftFoot -42.958752 21.213665 -19.168359
LeftToeBase 23.527183 -0.000000 -0.000000
RightUpLeg -48.856608 -12.904564 -3.568030
RightLeg -6.485109 -0.000000 0.000000
RightFoot 10.548724 -35.248633 9.576070
RightToeBase 17.840874 -0.000000 -0.000000
417
root 13.924348 31.676948 -20.909072 -178.442258 65.945809 -201.256256
Spine -4.022798 -0.192309 -4.288081
Head 23.583404 -14.015978 -3.683390
LeftShoulder -12.263056 -20.567495 -2.189806
LeftArm -30.193851 -0.198695 -61.081874
LeftForeArm 1.019064 -0.000000 6.888536
LeftHand -0.516113 -0.000000 2.108533
LeftHandThumb1 -26.253704 0.000000 33.147579
RightShoulder -8.310011 -14.312362 7.041296
RightArm 22.698567 -13.721191 59.316517
RightForeArm -29.848141 -0.000000 29.391957
RightHand -2.428624 -0.000000 14.952095
RightHandThumb1 -24.326973 -0.000000 -32.862282
LeftUpLeg 5.307600 3.977161 -8.789912
LeftLeg -0.205665 -0.000000 0.000000
LeftFoot -42.951577 21.244924 -19.045336
LeftToeBase 23.684432 -0.000000 -0.000000
RightUpLeg -49.110024 -13.397843 -3.451714
RightLeg -6.499808 -0.000000 0.000000
RightFoot 10.827467 -35.303653 9.765108
RightToeBase 18.588402 -0.000000 -0.000000
418
root 13.909349 31.679441 -20.908017 -178.357577 65.679939 -201.399791
Spine -4.038981 -0.175858 -4.232305
Head 23.256565 -14.209860 -3.628686
LeftShoulder -12.312641 -20.674731 -2.026702
LeftArm -30.301632 -0.638000 -60.688827
LeftForeArm 1.482057 -0.000000 6.884562
LeftHand -0.488557 -0.000000 1.959178
LeftHandThumb1 -26.253704 0.000000 33.147579
RightShoulder -8.190974 -14.094779 6.951185
RightArm 23.107753 -13.773991 58.839100
RightForeArm -30.142510 -0.000000 28.896597
RightHand -2.206649 0.000000 15.313758
RightHandThumb1 -24.326973 -0.000000 -32.862282
LeftUpLeg 5.057436 3.743464 -8.861396
LeftLeg -0.160631 -0.000000 0.000000
LeftFoot -42.893539 21.176264 -19.036182
LeftToeBase 23.529409 -0.000000 -0.000000
RightUpLeg -49.348970 -13.851286 -3.370544
RightLeg -6.498101 -0.000000 0.000000
RightFoot 11.195880 -35.130977 9.748593
RightToeBase 19.533552 -0.000000 -0.000000
419
root 13.897307 31.680772 -20.906227 -178.267071 65.446280 -201.516465
Spine -4.013600 -0.118316 -4.179406
Head 22.943530 -14.393014 -3.525182
LeftShoulder -12.360970 -20.767577 -1.822112
LeftArm -30.396506 -1.193315 -60.267325
LeftForeArm 1.954559 -0.000000 6.812020
LeftHand -0.348254 0.000000 1.957570
LeftHandThumb1 -26.253704 0.000000 33.147579
RightShoulder -7.941589 -13.841081 6.836286
RightArm 23.383109 -13.808672 58.352678
RightForeArm -30.281063 0.000000 28.495692
RightHand -2.304938 0.000000 15.466502
RightHandThumb1 -24.326973 -0.000000 -32.862282
LeftUpLeg 4.832446 3.523088 -8.917210
LeftLeg -0.124254 -0.000000 0.000000
LeftFoot -42.916758 21.237954 -18.947477
LeftToeBase 23.730550 -0.000000 -0.000000
RightUpLeg -49.575828 -14.237964 -3.301955
RightLeg -6.488442 -0.000000 0.000000
RightFoot 11.556871 -34.783789 9.774251
RightToeBase 20.830808 -0.000000 -0.000000
420
root 13.886849 31.681043 -20.904223 -178.213194 65.248310 -201.652253
Spine -3.926721 0.017989 -4.110968
Head 22.572403 -14.632267 -3.447470
LeftShoulder -12.411999 -20.870476 -1.652898
LeftArm -30.499631 -1.444977 -59.959609
LeftForeArm 2.263366 -0.000000 6.893147
LeftHand -0.443651 -0.000000 1.876263
LeftHandThumb1 -26.253704 0.000000 33.147579
RightShoulder -7.919176 -13.830125 6.784846
RightArm 24.168195 -13.845057 57.678144
RightForeArm -30.407115 0.000000 27.946757
RightHand -2.271538 -0.000000 15.580617
RightHandThumb1 -24.326973 -0.000000 -32.862282
LeftUpLeg 4.638188 3.335525 -8.983359
LeftLeg -0.111875 -0.000000 0.000000
LeftFoot -42.859673 21.198900 -18.964951
LeftToeBase 23.623879 -0.000000 -0.000000
RightUpLeg -49.798284 -14.546262 -3.249425
RightLeg -6.446636 -0.000000 0.000000
RightFoot 11.966053 -34.241735 9.647914
RightToeBase 22.145214 -0.000000 -0.000000
421
root 13.887291 31.680367 -20.902227 -178.020931 64.983709 -201.633819
Spine -3.844437 0.145788 -3.951997
Head 22.256539 -14.919735 -3.417276
LeftShoulder -12.474523 -20.939236 -1.509586
LeftArm -30.541183 -1.729310 -59.617479
LeftForeArm 2.670085 0.000000 6.906133
LeftHand -0.488282 -0.000000 1.982922
LeftHandThumb1 -26.253704 0.000000 33.147579
RightShoulder -7.837156 -13.740200 6.701200
RightArm 24.743284 -13.857404 57.001166
RightForeArm -30.500855 -0.000000 27.512552
RightHand -2.291490 -0.000000 15.672429
RightHandThumb1 -24.326973 -0.000000 -32.862282
LeftUpLeg 4.477493 3.123452 -8.967291
LeftLeg -0.125676 -0.000000 0.000000
LeftFoot -42.841888 21.192151 -18.907743
LeftToeBase 23.674005 -0.000000 -0.000000
RightUpLeg -49.903294 -14.710056 -3.380659
RightLeg -6.421070 -0.000000 0.000000
RightFoot 12.418469 -33.741470 9.171509
RightToeBase 23.321614 -0.000000 -0.000000
422
root 13.890742 31.683402 -20.893278 -177.699401 64.664355 -201.580134
Spine -3.879348 0.239555 -3.792351
Head 21.996491 -15.175177 -3.330392
LeftShoulder -12.596187 -20.992109 -1.301367
LeftArm -30.548621 -2.193551 -59.159250
LeftForeArm 3.361581 0.000000 6.866821
LeftHand -0.551144 -0.000000 1.870575
LeftHandThumb1 -26.253704 0.000000 33.147579
RightShoulder -7.605841 -13.481504 6.602247
RightArm 24.945746 -13.663186 56.504866
RightForeArm -30.535751 -0.000000 27.279116
RightHand -2.672838 -0.000000 16.152992
RightHandThumb1 -24.326973 -0.000000 -32.862282
LeftUpLeg 4.204758 2.856758 -8.923667
LeftLeg -0.111564 -0.000000 0.000000
LeftFoot -42.792269 21.172634 -18.864210
LeftToeBase 23.756857 -0.000000 -0.000000
RightUpLeg -50.112875 -14.971846 -3.369107
RightLeg -6.426078 -0.000000 0.000000
RightFoot 12.903673 -33.278301 8.699984
RightToeBase 24.437469 -0.000000 -0.000000
423
root 13.885978 31.683471 -20.890981 -177.663875 64.485119 -201.807167
Spine -3.807904 0.620409 -3.778228
Head 21.605894 -15.593422 -3.186521
LeftShoulder -12.569966 -21.061826 -1.108819
LeftArm -30.557422 -2.376209 -58.860146
LeftForeArm 3.550486 -0.000000 6.887189
LeftHand -0.625839 -0.000000 1.857878
LeftHandThumb1 -26.253704 0.000000 33.147579
RightShoulder -7.603592 -13.249853 6.497140
RightArm 25.374505 -13.612102 55.959243
RightForeArm -30.483750 -0.000000 26.845535
RightHand -2.642494 -0.000000 15.964619
RightHandThumb1 -24.326973 -0.000000 -32.862282
LeftUpLeg 3.969682 2.732187 -9.021573
LeftLeg -0.125418 -0.000000 0.000000
LeftFoot -42.713940 21.105677 -18.896126
LeftToeBase 23.786689 -0.000000 -0.000000
RightUpLeg -50.350354 -15.042189 -3.571534
RightLeg -6.353174 -0.000000 0.000000
RightFoot 13.337517 -33.024309 8.120348
RightToeBase 25.219120 -0.000000 -0.000000
424
root 13.887206 31.685992 -20.889595 -177.423893 64.248946 -201.850457
Spine -3.783752 0.900106 -3.610334
Head 21.298879 -15.958801 -3.189656
LeftShoulder -12.644691 -21.107130 -0.950893
LeftArm -30.585717 -2.607223 -58.494992
LeftForeArm 3.936683 -0.000000 7.003195
LeftHand -0.797349 -0.000000 1.684430
LeftHandThumb1 -26.253704 0.000000 33.147579
RightShoulder -7.496837 -13.048607 6.352024
RightArm 25.758671 -13.473783 55.362485
RightForeArm -30.592133 -0.000000 26.509023
RightHand -2.620072 -0.000000 15.984724
RightHandThumb1 -24.326973 -0.000000 -32.862282
LeftUpLeg 3.696273 2.540554 -9.037739
LeftLeg -0.127153 -0.000000 0.000000
LeftFoot -42.638993 21.064667 -18.949324
LeftToeBase 23.934936 -0.000000 -0.000000
RightUpLeg -50.568627 -15.156987 -3.684174
RightLeg -6.350381 -0.000000 0.000000
RightFoot 13.742497 -33.062616 7.747355
RightToeBase 26.195514 -0.000000 -0.000000
425
root 13.893792 31.687178 -20.890652 -177.226358 63.982745 -201.877289
Spine -3.685934 1.175245 -3.412549
Head 20.992710 -16.275234 -3.223207
LeftShoulder -12.674533 -21.201114 -0.828404
LeftArm -30.660506 -2.731737 -58.125187
LeftForeArm 4.070357 -0.000000 7.046668
LeftHand -0.803704 0.000000 1.661509
LeftHandThumb1 -26.253704 0.000000 33.147579
RightShoulder -7.304469 -12.866921 6.126071
RightArm 26.087602 -13.006943 55.003012
RightForeArm -30.747539 0.000000 26.104413
RightHand -2.606498 -0.000000 15.989053
RightHandThumb1 -24.326973 -0.000000 -32.862282
LeftUpLeg 3.495320 2.355634 -9.034760
LeftLeg -0.141810 -0.000000 0.000000
LeftFoot -42.538688 20.997582 -19.029805
LeftToeBase 24.223717 -0.000000 -0.000000
RightUpLeg -50.685828 -15.261686 -3.834158
RightLeg -6.378912 -0.000000 0.000000
RightFoot 14.132986 -33.161021 7.139559
RightToeBase 26.684624 -0.000000 -0.000000
426
root 13.904253 31.691549 -20.889863 -176.803940 63.634988 -201.791907
Spine -3.722245 1.480505 -3.140290
Head 20.715289 -16.725818 -3.261890
LeftShoulder -12.698950 -21.139242 -0.767740
LeftArm -30.592119 -2.958183 -57.680275
LeftForeArm 4.267411 -0.000000 7.138345
LeftHand -0.973288 -0.000000 1.512923
LeftHandThumb1 -26.253704 0.000000 33.147579
RightShoulder -7.297226 -12.681390 5.969821
RightArm 26.460778 -12.787495 54.394642
RightForeArm -30.752029 -0.000000 25.741197
RightHand -2.596456 -0.000000 15.859123
RightHandThumb1 -24.326973 -0.000000 -32.862282
LeftUpLeg 3.167040 2.126723 -8.972095
LeftLeg -0.150463 -0.000000 0.000000
LeftFoot -42.389795 20.907748 -19.106898
LeftToeBase 24.569133 -0.000000 -0.000000
RightUpLeg -50.896932 -15.450918 -3.886975
RightLeg -6.429845 -0.000000 0.000000
RightFoot 14.544732 -33.241944 6.463884
RightToeBase 27.115712 -0.000000 -0.000000
